<svg width="25" height="25" viewBox="0 0 25 25" fill="none" xmlns="http://www.w3.org/2000/svg">
<path d="M12.5 0.657227L13.2082 4.76558C13.8415 8.4401 16.8554 11.3201 20.7007 11.9253L25 12.6021L20.7007 13.2788C16.8554 13.884 13.8415 16.764 13.2082 20.4385L12.5 24.5469L11.7918 20.4385C11.1585 16.764 8.14461 13.884 4.29931 13.2788L0 12.6021L4.29931 11.9253C8.14461 11.3201 11.1585 8.4401 11.7918 4.76558L12.5 0.657227Z" fill="#3888F9"/>
<path d="M12.5 0.657227L13.2082 4.76558C13.8415 8.4401 16.8554 11.3201 20.7007 11.9253L25 12.6021L20.7007 13.2788C16.8554 13.884 13.8415 16.764 13.2082 20.4385L12.5 24.5469L11.7918 20.4385C11.1585 16.764 8.14461 13.884 4.29931 13.2788L0 12.6021L4.29931 11.9253C8.14461 11.3201 11.1585 8.4401 11.7918 4.76558L12.5 0.657227Z" fill="#3888F9"/>
<path d="M12.5 0.657227L13.2082 4.76558C13.8415 8.4401 16.8554 11.3201 20.7007 11.9253L25 12.6021L20.7007 13.2788C16.8554 13.884 13.8415 16.764 13.2082 20.4385L12.5 24.5469L11.7918 20.4385C11.1585 16.764 8.14461 13.884 4.29931 13.2788L0 12.6021L4.29931 11.9253C8.14461 11.3201 11.1585 8.4401 11.7918 4.76558L12.5 0.657227Z" fill="#3888F9"/>
</svg>
